<mxfile host="app.diagrams.net" modified="2023-10-23T16:29:13.281Z" agent="Mozilla/5.0 (Windows NT 10.0; Win64; x64) AppleWebKit/537.36 (KHTML, like Gecko) Chrome/118.0.0.0 Safari/537.36" version="22.0.6" etag="6QarMdkwayxph4cThxMP" type="github">
  <diagram name="Page-1" id="uRrn7Bry6k7l_UPKvo8q">
    <mxGraphModel>
      <root>
        <mxCell id="0" />
        <mxCell id="1" parent="0" />
      </root>
    </mxGraphModel>
  </diagram>
</mxfile>
